<?xml version="1.0" encoding="UTF-8"?>
<svg xmlns="http://www.w3.org/2000/svg" viewBox="0 0 1200 560" font-family="Inter, system-ui, sans-serif" font-size="13">
  <style>
    .task { fill: #ffffff; stroke: #000000; stroke-width: 1.5; }
    .titel { font-weight: 700; }
    .sub { font-size: 11px; fill: #555555; font-style: italic; }
    .text { fill: #000000; }
    .mitte { text-anchor: middle; dominant-baseline: middle; }
    .links { text-anchor: start; dominant-baseline: middle; }
    .pfeil { stroke: #000000; stroke-width: 1.5; fill: none; }
    .label { font-weight: 700; }
  </style>
  <rect width="100%" height="100%" fill="#ffffff" />

  <text x="600" y="40" class="text mitte titel" font-size="20">Airflow-DAG: arbeitsmarkt_data_pipeline</text>
  <text x="600" y="64" class="text mitte sub">Taeglich 06:00 UTC, owner Jordan Jeuna, email_on_failure</text>

  <rect x="60" y="180" width="160" height="100" rx="10" class="task" />
  <text x="140" y="210" class="text mitte titel">ingestion_lauf</text>
  <text x="140" y="232" class="text mitte sub">PythonOperator</text>
  <text x="140" y="252" class="text mitte sub">retries 3</text>
  <text x="140" y="270" class="text mitte sub">exp. backoff</text>

  <rect x="250" y="180" width="160" height="100" rx="10" class="task" />
  <text x="330" y="210" class="text mitte titel">silver_</text>
  <text x="330" y="228" class="text mitte titel">transformation</text>
  <text x="330" y="252" class="text mitte sub">PythonOperator</text>
  <text x="330" y="270" class="text mitte sub">DuckDB SQL</text>

  <rect x="440" y="180" width="160" height="100" rx="10" class="task" />
  <text x="520" y="210" class="text mitte titel">gold_</text>
  <text x="520" y="228" class="text mitte titel">initialisieren</text>
  <text x="520" y="252" class="text mitte sub">PythonOperator</text>
  <text x="520" y="270" class="text mitte sub">Schema-Vorbereitung</text>

  <rect x="630" y="180" width="160" height="100" rx="10" class="task" />
  <text x="710" y="210" class="text mitte titel">dbt_deps</text>
  <text x="710" y="232" class="text mitte sub">BashOperator</text>
  <text x="710" y="252" class="text mitte sub">dbt deps</text>

  <rect x="820" y="180" width="160" height="100" rx="10" class="task" />
  <text x="900" y="210" class="text mitte titel">dbt_run</text>
  <text x="900" y="232" class="text mitte sub">BashOperator</text>
  <text x="900" y="252" class="text mitte sub">dbt run</text>

  <rect x="1010" y="180" width="160" height="100" rx="10" class="task" />
  <text x="1090" y="210" class="text mitte titel">dbt_test</text>
  <text x="1090" y="232" class="text mitte sub">BashOperator</text>
  <text x="1090" y="252" class="text mitte sub">dbt test</text>

  <path class="pfeil" d="M 220 230 L 250 230" marker-end="url(#pfa)" />
  <path class="pfeil" d="M 410 230 L 440 230" marker-end="url(#pfa)" />
  <path class="pfeil" d="M 600 230 L 630 230" marker-end="url(#pfa)" />
  <path class="pfeil" d="M 790 230 L 820 230" marker-end="url(#pfa)" />
  <path class="pfeil" d="M 980 230 L 1010 230" marker-end="url(#pfa)" />

  <rect x="60" y="360" width="540" height="160" rx="10" class="task" />
  <text x="80" y="385" class="text links label">Idempotenz</text>
  <text x="80" y="405" class="text links sub">Gleiches Datum = gleiches Ergebnis.</text>
  <text x="80" y="423" class="text links sub">Adzuna-ID-Deduplizierung.</text>

  <text x="80" y="455" class="text links label">Beobachtung</text>
  <text x="80" y="475" class="text links sub">JSON-Logs mit Korrelationskennung.</text>
  <text x="80" y="493" class="text links sub">Quarantaenezaehler im Lauf-Bericht.</text>

  <rect x="640" y="360" width="540" height="160" rx="10" class="task" />
  <text x="660" y="385" class="text links label">Fehlerbehandlung</text>
  <text x="660" y="405" class="text links sub">Quota-Erschoepfung der Adzuna-API</text>
  <text x="660" y="423" class="text links sub">fuehrt zu kontrolliertem Abbruch.</text>

  <text x="660" y="455" class="text links label">Benachrichtigung</text>
  <text x="660" y="475" class="text links sub">Finale Task-Fehler triggern SMTP-Mail</text>
  <text x="660" y="493" class="text links sub">an jeunaj3@gmail.com.</text>

  <defs>
    <marker id="pfa" markerWidth="10" markerHeight="10" refX="8" refY="3" orient="auto">
      <path d="M0,0 L0,6 L9,3 z" fill="#000000" />
    </marker>
  </defs>
</svg>
