<?xml version="1.0" encoding="UTF-8"?>
<svg xmlns="http://www.w3.org/2000/svg" viewBox="0 0 1200 760" font-family="Inter, system-ui, sans-serif" font-size="13">
  <style>
    .knoten { fill: #ffffff; stroke: #000000; stroke-width: 1.5; }
    .titel { font-weight: 700; }
    .sub { font-size: 11px; fill: #555555; font-style: italic; }
    .text { fill: #000000; }
    .mitte { text-anchor: middle; dominant-baseline: middle; }
    .links { text-anchor: start; dominant-baseline: middle; }
    .pfeil { stroke: #000000; stroke-width: 1.5; fill: none; }
    .gruppentitel { font-weight: 700; font-size: 12px; letter-spacing: 1px; }
  </style>
  <rect width="100%" height="100%" fill="#ffffff" />

  <text x="600" y="40" class="text mitte titel" font-size="20">Deployment-Topologie</text>
  <text x="600" y="64" class="text mitte sub">Ein extern erreichbarer Port. Frontend und API teilen sich denselben Container.</text>

  <text x="60" y="130" class="text links gruppentitel">AUSSEN</text>
  <rect x="60" y="140" width="220" height="80" rx="10" class="knoten" />
  <text x="170" y="170" class="text mitte titel">Endnutzer</text>
  <text x="170" y="195" class="text mitte sub">Browser, HTTPS</text>

  <text x="60" y="270" class="text links gruppentitel">EXTERN (DATENQUELLE)</text>
  <rect x="60" y="280" width="220" height="80" rx="10" class="knoten" />
  <text x="170" y="310" class="text mitte titel">Adzuna API</text>
  <text x="170" y="335" class="text mitte sub">HTTPS, Land: de</text>

  <text x="320" y="130" class="text links gruppentitel">HOST (LINUX VPS)</text>
  <rect x="320" y="140" width="220" height="80" rx="10" class="knoten" />
  <text x="430" y="170" class="text mitte titel">Host-Nginx</text>
  <text x="430" y="195" class="text mitte sub">TLS, Port 80 + 443</text>

  <text x="580" y="130" class="text links gruppentitel">DOCKER COMPOSE STACK</text>

  <rect x="580" y="140" width="240" height="80" rx="10" class="knoten" />
  <text x="700" y="170" class="text mitte titel">backend</text>
  <text x="700" y="195" class="text mitte sub">127.0.0.1:8081 (API + UI)</text>

  <rect x="860" y="140" width="280" height="80" rx="10" class="knoten" />
  <text x="1000" y="170" class="text mitte titel">airflow-scheduler</text>
  <text x="1000" y="195" class="text mitte sub">LocalExecutor, intern :8080</text>

  <rect x="580" y="280" width="240" height="80" rx="10" class="knoten" />
  <text x="700" y="310" class="text mitte titel">postgres</text>
  <text x="700" y="335" class="text mitte sub">nur Airflow Metadaten</text>

  <rect x="860" y="280" width="280" height="80" rx="10" class="knoten" />
  <text x="1000" y="310" class="text mitte titel">volume-permissions</text>
  <text x="1000" y="335" class="text mitte sub">Busybox, Init</text>

  <text x="580" y="420" class="text links gruppentitel">VOLUMES</text>
  <rect x="580" y="440" width="240" height="80" rx="10" class="knoten" />
  <text x="700" y="470" class="text mitte titel">djr-lake</text>
  <text x="700" y="495" class="text mitte sub">/data/lake (Parquet)</text>

  <rect x="860" y="440" width="280" height="80" rx="10" class="knoten" />
  <text x="1000" y="470" class="text mitte titel">djr-warehouse</text>
  <text x="1000" y="495" class="text mitte sub">/data/warehouse (DuckDB)</text>

  <text x="60" y="580" class="text links gruppentitel">SICHERHEITSGRENZEN</text>
  <rect x="60" y="600" width="500" height="130" rx="10" class="knoten" />
  <text x="80" y="630" class="text links sub">Backend bindet ausschliesslich an 127.0.0.1.</text>
  <text x="80" y="655" class="text links sub">Oeffentlich erreichbar nur ueber die Host-Nginx.</text>
  <text x="80" y="680" class="text links sub">Geheimnisse in .env (gitignored), niemals im Image.</text>
  <text x="80" y="705" class="text links sub">Rate Limit + CORS-Whitelist in der API.</text>

  <text x="600" y="580" class="text links gruppentitel">HEALTHCHECKS</text>
  <rect x="600" y="600" width="540" height="130" rx="10" class="knoten" />
  <text x="620" y="630" class="text links sub">postgres: pg_isready</text>
  <text x="620" y="655" class="text links sub">backend: GET /api/v1/health</text>
  <text x="620" y="680" class="text links sub">airflow-webserver: GET /health</text>
  <text x="620" y="705" class="text links sub">airflow-scheduler: jobs check SchedulerJob</text>

  <path class="pfeil" d="M 280 180 L 320 180" marker-end="url(#pfd)" />
  <path class="pfeil" d="M 540 180 L 580 180" marker-end="url(#pfd)" />
  <text x="295" y="160" class="text links sub">HTTPS</text>
  <text x="552" y="160" class="text links sub">proxy_pass</text>

  <path class="pfeil" d="M 280 320 L 860 200" marker-end="url(#pfd)" />
  <text x="500" y="245" class="text mitte sub">Adzuna-Aufrufe (Scheduler -&gt; extern)</text>

  <path class="pfeil" d="M 1000 220 L 820 280" marker-end="url(#pfd)" />
  <text x="935" y="245" class="text mitte sub">SQL</text>

  <path class="pfeil" d="M 700 360 L 700 440" marker-end="url(#pfd)" />
  <path class="pfeil" d="M 1000 360 L 1000 440" marker-end="url(#pfd)" />
  <path class="pfeil" d="M 700 220 L 700 280" marker-end="url(#pfd)" />

  <defs>
    <marker id="pfd" markerWidth="10" markerHeight="10" refX="8" refY="3" orient="auto">
      <path d="M0,0 L0,6 L9,3 z" fill="#000000" />
    </marker>
  </defs>
</svg>
